<svg width="100" height="60" viewBox="0 0 180 74" fill="none" xmlns="http://www.w3.org/2000/svg">
<path d="M24.2367 7.33898L15 26.1569C16.7704 28.6226 17.5546 28.0832 18.8486 26.1569L21.6576 28.0604C23.3372 29.1985 25.5782 30.2181 27.1554 28.9418C27.8175 28.406 28.5111 27.5432 29.3682 26.1569L31.5447 27.2855C33.2025 28.1451 34.2431 29.8568 34.2431 31.7242V48.0643V65.5791C34.2431 66.732 34.8618 67.7961 35.8637 68.3664V68.3664C38.0018 69.5834 40.6575 68.0393 40.6575 65.5791V34.6462C40.6575 29.4219 37.7746 24.6241 33.1618 22.1715L31.6774 21.3822V21.3822C33.1248 18.223 31.5009 14.8076 28.8709 12.5363C28.2459 11.9965 27.5772 11.4049 26.8024 10.7094L27.8287 9.02416C27.3388 7.25136 26.8168 6.55933 24.2367 7.33898ZM43.4129 27.2803L42.1613 28.3079C41.0045 29.2576 40.334 30.6756 40.334 32.1724V65.7998C40.334 66.8219 39.805 67.7712 38.9358 68.309V68.309C36.9701 69.5252 34.4327 68.1113 34.4327 65.7998V33.3707C34.4327 28.8438 36.6496 24.5742 40.334 21.9439V21.9439L39.5642 21.3822L41.3603 19.4161V19.4161C40.714 16.5863 41.2998 13.4526 43.5944 11.6748C45.1905 10.4381 46.7114 9.81102 48.8009 9.02416L47.2615 6.49638C47.1043 4.1577 47.9012 3.22659 50.3404 2.00256L53.6759 7.33898L61.6297 2.00256C64.0361 1.94831 64.2625 2.74826 63.4257 5.09207L55.4719 10.7094C57.0649 13.9501 58.149 15.6375 60.6034 18.2927L67.7875 12.6754C70.3532 12.6754 69.3269 16.0458 69.3269 16.0458L61.6297 21.9439L64.7086 27.2803C62.8297 29.4056 62.0147 29.2332 60.6034 28.6847L59.0639 26.1569L56.5873 28.2655C53.7266 30.7011 49.6351 31.9488 47.7746 28.6847V28.6847L45.722 29.8081L43.4129 27.2803Z" stroke="#DE9509" stroke-width="3"/>
<path d="M8.39844 53.9805V64H2.53906V35.5625H13.6328C15.7682 35.5625 17.6432 35.9531 19.2578 36.7344C20.8854 37.5156 22.1354 38.6289 23.0078 40.0742C23.8802 41.5065 24.3164 43.1406 24.3164 44.9766C24.3164 47.763 23.3594 49.9635 21.4453 51.5781C19.5443 53.1797 16.9076 53.9805 13.5352 53.9805H8.39844ZM8.39844 49.2344H13.6328C15.1823 49.2344 16.3607 48.8698 17.168 48.1406C17.9883 47.4115 18.3984 46.3698 18.3984 45.0156C18.3984 43.6224 17.9883 42.4961 17.168 41.6367C16.3477 40.7773 15.2148 40.3346 13.7695 40.3086H8.39844V49.2344Z" fill="#C4C4C4"/>
<path d="M74.0625 35.5625V54.293C74.0625 57.4049 73.0859 59.8659 71.1328 61.6758C69.1927 63.4857 66.5365 64.3906 63.1641 64.3906C59.8438 64.3906 57.207 63.5117 55.2539 61.7539C53.3008 59.9961 52.3047 57.5807 52.2656 54.5078V35.5625H58.125V54.332C58.125 56.194 58.5677 57.5547 59.4531 58.4141C60.3516 59.2604 61.5885 59.6836 63.1641 59.6836C66.4583 59.6836 68.1315 57.9518 68.1836 54.4883V35.5625H74.0625ZM101.367 60.4062C100.312 61.6693 98.8216 62.6523 96.8945 63.3555C94.9674 64.0456 92.832 64.3906 90.4883 64.3906C88.0273 64.3906 85.8659 63.8568 84.0039 62.7891C82.1549 61.7083 80.7227 60.1458 79.707 58.1016C78.7044 56.0573 78.1901 53.6549 78.1641 50.8945V48.9609C78.1641 46.1224 78.6393 43.668 79.5898 41.5977C80.5534 39.5143 81.9336 37.9258 83.7305 36.832C85.5404 35.7253 87.6562 35.1719 90.0781 35.1719C93.4505 35.1719 96.0872 35.9792 97.9883 37.5938C99.8893 39.1953 101.016 41.5326 101.367 44.6055H95.6641C95.4036 42.9779 94.8242 41.7865 93.9258 41.0312C93.0404 40.276 91.8164 39.8984 90.2539 39.8984C88.2617 39.8984 86.7448 40.6471 85.7031 42.1445C84.6615 43.6419 84.1341 45.8685 84.1211 48.8242V50.6406C84.1211 53.6224 84.6875 55.875 85.8203 57.3984C86.9531 58.9219 88.6133 59.6836 90.8008 59.6836C93.0013 59.6836 94.5703 59.2148 95.5078 58.2773V53.375H90.1758V49.0586H101.367V60.4062ZM128.633 60.4062C127.578 61.6693 126.087 62.6523 124.16 63.3555C122.233 64.0456 120.098 64.3906 117.754 64.3906C115.293 64.3906 113.132 63.8568 111.27 62.7891C109.421 61.7083 107.988 60.1458 106.973 58.1016C105.97 56.0573 105.456 53.6549 105.43 50.8945V48.9609C105.43 46.1224 105.905 43.668 106.855 41.5977C107.819 39.5143 109.199 37.9258 110.996 36.832C112.806 35.7253 114.922 35.1719 117.344 35.1719C120.716 35.1719 123.353 35.9792 125.254 37.5938C127.155 39.1953 128.281 41.5326 128.633 44.6055H122.93C122.669 42.9779 122.09 41.7865 121.191 41.0312C120.306 40.276 119.082 39.8984 117.52 39.8984C115.527 39.8984 114.01 40.6471 112.969 42.1445C111.927 43.6419 111.4 45.8685 111.387 48.8242V50.6406C111.387 53.6224 111.953 55.875 113.086 57.3984C114.219 58.9219 115.879 59.6836 118.066 59.6836C120.267 59.6836 121.836 59.2148 122.773 58.2773V53.375H117.441V49.0586H128.633V60.4062ZM150.508 51.6758H139.258V59.293H152.461V64H133.398V35.5625H152.422V40.3086H139.258V47.0859H150.508V51.6758ZM155.898 64V35.5625H164.648C167.148 35.5625 169.382 36.1289 171.348 37.2617C173.327 38.3815 174.87 39.9831 175.977 42.0664C177.083 44.1367 177.637 46.4935 177.637 49.1367V50.4453C177.637 53.0885 177.09 55.4388 175.996 57.4961C174.915 59.5534 173.385 61.1484 171.406 62.2812C169.427 63.4141 167.194 63.987 164.707 64H155.898ZM161.758 40.3086V59.293H164.59C166.882 59.293 168.633 58.5443 169.844 57.0469C171.055 55.5495 171.673 53.4076 171.699 50.6211V49.1172C171.699 46.2266 171.1 44.0391 169.902 42.5547C168.704 41.0573 166.953 40.3086 164.648 40.3086H161.758Z" fill="#C4C4C4"/>
</svg>
