<svg width="725" height="1052" viewBox="0 0 725 1052" fill="none" xmlns="http://www.w3.org/2000/svg">
<path d="M247.244 891.706C258.964 935.176 252.306 968.082 233.15 992.238C213.882 1016.53 181.573 1032.49 140.987 1041.06C59.8172 1058.19 -52.8509 1045.42 -154.229 1013.12C-204.877 996.984 -252.58 976.011 -292.008 951.565C-331.474 927.095 -362.447 899.27 -379.901 869.516C-397.282 839.887 -401.268 808.368 -386.894 775.974C-372.439 743.397 -339.241 709.538 -281.325 675.896C-47.4826 540.061 -9.37494 355.452 -4.70017 239.829C-3.67079 214.37 -4.26112 192.251 -4.72638 174.821C-4.78849 172.493 -4.84836 170.25 -4.90183 168.093C-5.12975 158.903 -5.23921 151.372 -4.93063 145.617C-4.77646 142.742 -4.52173 140.397 -4.15025 138.559C-3.76948 136.676 -3.31218 135.569 -2.90782 134.986C-2.6124 134.559 -2.47098 134.561 -2.40823 134.562C-2.40297 134.562 -2.39827 134.562 -2.39409 134.562C-2.12105 134.548 -1.36296 134.661 0.0720234 135.55C2.93643 137.324 7.03434 141.253 12.7681 147.944C24.1406 161.215 41.0404 184.245 66.087 219.018C116.448 288.934 170.807 326.959 225.202 347.234C279.535 367.485 333.695 369.947 383.483 369.081C395.735 368.868 407.739 368.453 419.41 368.049L419.971 368.029C431.829 367.619 443.336 367.225 454.464 367.066C476.734 366.749 497.33 367.383 515.874 370.691C534.394 373.995 550.756 379.948 564.628 390.195C578.48 400.428 590.025 415.071 598.723 436.037C607.344 456.817 606.909 473.572 600.168 487.862C593.356 502.303 579.899 514.673 561.572 526.136C543.269 537.584 520.435 547.932 495.259 558.485C486.898 561.989 478.273 565.519 469.483 569.116C451.892 576.314 433.638 583.783 415.509 591.869C361.12 616.126 306.944 646.299 272.431 692.902C237.77 739.704 223.235 802.654 247.244 891.706Z" fill="url(#paint0_linear)" stroke="#9C5F14" stroke-width="6"/>
<defs>
<linearGradient id="paint0_linear" x1="604.758" y1="443.659" x2="-427.389" y2="721.927" gradientUnits="userSpaceOnUse">
<stop stop-color="#C4C4C4" stop-opacity="0.23"/>
<stop offset="1" stop-color="#C4C4C4" stop-opacity="0"/>
</linearGradient>
</defs>
</svg>
