<svg width="847" height="988" viewBox="0 0 847 988" fill="none" xmlns="http://www.w3.org/2000/svg">
<path d="M475.871 118.328C467.765 74.0416 477.105 41.7939 498.182 19.2948C519.381 -3.33483 552.893 -16.5804 594.046 -21.782C676.349 -32.185 787.586 -10.1976 885.966 30.3265C935.116 50.5722 980.934 75.3955 1018.22 103C1055.54 130.631 1084.12 160.909 1099.07 191.996C1113.96 222.954 1115.34 254.695 1098.35 285.797C1081.27 317.075 1045.4 348.091 984.91 376.858C740.693 493.01 687.539 673.862 673.375 788.709C670.257 813.997 669.027 836.09 668.058 853.5C667.928 855.824 667.803 858.065 667.679 860.219C667.151 869.396 666.641 876.911 665.86 882.622C665.47 885.474 665.024 887.79 664.503 889.591C663.968 891.437 663.422 892.502 662.971 893.05C662.641 893.451 662.5 893.438 662.438 893.432C662.433 893.432 662.428 893.431 662.424 893.431C662.151 893.422 661.404 893.247 660.047 892.244C657.338 890.24 653.577 885.987 648.413 878.848C638.17 864.686 623.22 840.345 601.117 803.631C556.674 729.811 505.624 687.447 453.08 662.769C400.597 638.12 346.822 631.214 297.131 627.984C284.903 627.19 272.906 626.617 261.241 626.06L260.68 626.033C248.829 625.467 237.328 624.914 226.225 624.157C204.004 622.643 183.53 620.318 165.321 615.497C147.134 610.682 131.317 603.404 118.335 592.051C105.371 580.714 95.0688 565.171 88.1237 543.562C81.24 522.143 83.0511 505.481 90.9438 491.793C98.92 477.961 113.348 466.739 132.556 456.821C151.737 446.917 175.345 438.481 201.303 430.033C209.924 427.228 218.81 424.42 227.866 421.557C245.989 415.83 264.795 409.886 283.528 403.318C339.726 383.614 396.2 357.997 434.427 314.389C472.818 270.594 492.478 209.052 475.871 118.328Z" fill="url(#paint0_linear)" stroke="#9C5F14" stroke-width="6"/>
<defs>
<linearGradient id="paint0_linear" x1="82.7354" y1="535.469" x2="1134.26" y2="342.99" gradientUnits="userSpaceOnUse">
<stop stop-color="#C4C4C4" stop-opacity="0.24"/>
<stop offset="1" stop-color="#C4C4C4" stop-opacity="0"/>
</linearGradient>
</defs>
</svg>
